HIERARCHY
ROOT Hips
{
  OFFSET 49.0794 95.6391 7.25949
  CHANNELS 6 Xposition Yposition Zposition Zrotation Xrotation Yrotation
  JOINT spine
  {
    OFFSET 0 8.13249 0.467659
    CHANNELS 3 Zrotation Xrotation Yrotation
    JOINT spine1
    {
      OFFSET 0 10.3498 0
      CHANNELS 3 Zrotation Xrotation Yrotation
      JOINT spine2
      {
        OFFSET 0 9.91699 0
        CHANNELS 3 Zrotation Xrotation Yrotation
        JOINT Neck
        {
          OFFSET 0 25.461 1.2139
          CHANNELS 3 Zrotation Xrotation Yrotation
          JOINT Head
          {
            OFFSET 0 7.69245 0
            CHANNELS 3 Zrotation Xrotation Yrotation
            End Site
            {
              OFFSET 0 18.62 -6.14063
            }
          }
        }
        JOINT RightShoulder
        {
          OFFSET -4.17575 10.7096 -0.581445
          CHANNELS 3 Zrotation Xrotation Yrotation
          JOINT RightArm
          {
            OFFSET 0 14.0466 0
            CHANNELS 3 Zrotation Xrotation Yrotation
            JOINT RightArmRoll
            {
              OFFSET 0 7.09098 0
              CHANNELS 3 Zrotation Xrotation Yrotation
              JOINT RightForeArm
              {
                OFFSET 0 20.6535 0
                CHANNELS 3 Zrotation Xrotation Yrotation
                JOINT RightForeArmRoll
                {
                  OFFSET 0 7.95718 0
                  CHANNELS 3 Zrotation Xrotation Yrotation
                  JOINT RightHand
                  {
                    OFFSET 0 15.9683 0
                    CHANNELS 3 Zrotation Xrotation Yrotation
                    End Site
                    {
                      OFFSET 0 0 0
                    }
                  }
                }
              }
            }
          }
        }
        JOINT LeftShoulder
        {
          OFFSET 4.17575 10.7096 -0.581445
          CHANNELS 3 Zrotation Xrotation Yrotation
          JOINT LeftArm
          {
            OFFSET 0 14.0466 0
            CHANNELS 3 Zrotation Xrotation Yrotation
            JOINT LeftArmRoll
            {
              OFFSET 0 7.09098 0
              CHANNELS 3 Zrotation Xrotation Yrotation
              JOINT LeftForeArm
              {
                OFFSET 0 20.6535 0
                CHANNELS 3 Zrotation Xrotation Yrotation
                JOINT LeftForeArmRoll
                {
                  OFFSET 0 7.95718 0
                  CHANNELS 3 Zrotation Xrotation Yrotation
                  JOINT LeftHand
                  {
                    OFFSET 0 15.9683 0
                    CHANNELS 3 Zrotation Xrotation Yrotation
                    End Site
                    {
                      OFFSET 0 0 0
                    }
                  }
                }
              }
            }
          }
        }
      }
    }
  }
  JOINT RightUpLeg
  {
    OFFSET -7.20834 -1.32182 -1.10884
    CHANNELS 3 Zrotation Xrotation Yrotation
    JOINT RightUpLegRoll
    {
      OFFSET 0 18.7238 0
      CHANNELS 3 Zrotation Xrotation Yrotation
      JOINT RightLeg
      {
        OFFSET 0 -23.1866 0
        CHANNELS 3 Zrotation Xrotation Yrotation
        JOINT RightLegRoll
        {
          OFFSET 0 23.2624 0
          CHANNELS 3 Zrotation Xrotation Yrotation
          JOINT RightFoot
          {
            OFFSET 0 19.3621 0
            CHANNELS 3 Zrotation Xrotation Yrotation
            JOINT RightToeBase
            {
              OFFSET 0 16.1857 0
              CHANNELS 3 Zrotation Xrotation Yrotation
              End Site
              {
                OFFSET 0.00686052 7.83863 -0.903522
              }
            }
          }
        }
      }
    }
  }
  JOINT LeftUpLeg
  {
    OFFSET 7.20834 -1.32182 -1.10884
    CHANNELS 3 Zrotation Xrotation Yrotation
    JOINT LeftUpLegRoll
    {
      OFFSET 0 18.7239 0
      CHANNELS 3 Zrotation Xrotation Yrotation
      JOINT LeftLeg
      {
        OFFSET 0 23.1865 0
        CHANNELS 3 Zrotation Xrotation Yrotation
        JOINT LeftLegRoll
        {
          OFFSET 0 23.4775 0
          CHANNELS 3 Zrotation Xrotation Yrotation
          JOINT LeftFoot
          {
            OFFSET 0 19.147 0
            CHANNELS 3 Zrotation Xrotation Yrotation
            JOINT LeftToeBase
            {
              OFFSET 0 16.1857 0
              CHANNELS 3 Zrotation Xrotation Yrotation
              End Site
              {
                OFFSET -0.0307459 7.83863 -0.903522
              }
            }
          }
        }
      }
    }
  }
}
MOTION
Frames: 4
Frame Time: 0.00208333
49.482 96.1241 4.11272 -0.741317 -5.01985 0.704736 0.422261 -0.77168 0.0424763 0.845254 2.46759 0.0394135 0.845803 4.11257 0.0252862 -0.75699 11.6527 -5.39924 1.81384 -0.533127 -5.44229 60.5269 -9.8218 -6.11923 110.079 18.7959 16.0795 4.58455e-005 -3.90362e-006 -9.36195e-006 9.34786 2.37497 -0.848118 -5.84458e-006 -2.09091e-006 -3.00504 8.029 -4.95146 0.697678 -61.7245 -6.40409 4.10694 -109.347 19.7908 -5.67395 -7.15872e-007 -5.0229e-008 5.18533e-006 -9.74309 0.0817297 1.07061 7.22476e-006 6.31228e-007 3.04529 -8.029 -4.95145 -0.697678 174.036 3.18831 3.18692 180 7.0157e-015 179.028 178.503 12.4593 179.624 -1.2702e-006 3.14078e-006 0.0923583 -17.2943 68.6108 20.0148 8.13165 25.2351 -3.48275 -176.184 -0.826037 -0.280634 -1.07169e-005 -4.64205e-006 -1.12791 -1.18164 -14.0042 0.351371 -8.83531e-007 2.87672e-007 -0.356164 23.0931 72.886 -24.7148 -8.12571 25.2332 3.48314 
49.4917 96.1245 4.11947 -0.741273 -5.01745 0.696734 0.422549 -0.770151 0.0425454 0.845815 2.46967 0.0390883 0.84635 4.11465 0.0249559 -0.751389 11.6529 -5.39213 1.80471 -0.521963 -5.43489 60.5285 -9.82797 -6.12299 110.071 18.7754 16.0455 4.58455e-005 -3.90362e-006 -9.36195e-006 9.377 2.43592 -0.855984 -5.84458e-006 -2.09091e-006 -3.00504 8.029 -4.95146 0.697678 -61.7193 -6.3951 4.10139 -109.355 19.7841 -5.64452 -7.15872e-007 -5.0229e-008 5.18533e-006 -9.75655 0.0817264 1.06539 7.22476e-006 6.31228e-007 3.0449 -8.029 -4.95145 -0.697678 174.027 3.19305 3.19086 180 7.0157e-015 179.028 178.504 12.4591 179.624 -1.2702e-006 3.14078e-006 0.0925609 -17.2877 68.6066 20.0113 8.13165 25.2351 -3.48275 -176.192 -0.818702 -0.280305 -1.07169e-005 -4.64205e-006 -1.12791 -1.18727 -14.0141 0.349883 -8.8353e-007 2.87672e-007 -0.356727 23.1084 72.8908 -24.7202 -8.12571 25.2332 3.48314 
49.4987 96.1224 4.1088 -0.74114 -5.01499 0.68863 0.422824 -0.76858 0.0426513 0.846341 2.47179 0.0387922 0.846861 4.11677 0.0246556 -0.74666 11.6523 -5.38488 1.79648 -0.51024 -5.42748 60.5296 -9.83402 -6.12667 110.065 18.7556 16.013 4.58455e-005 -3.90362e-006 -9.36195e-006 9.40496 2.49486 -0.863586 -5.84458e-006 -2.09091e-006 -3.00504 8.029 -4.95146 0.697678 -61.7143 -6.38622 4.09594 -109.362 19.7774 -5.61549 -7.15872e-007 -5.0229e-008 5.18533e-006 -9.76985 0.0817231 1.06028 7.22476e-006 6.31228e-007 3.04452 -8.029 -4.95145 -0.697678 174.019 3.19754 3.19485 180 7.0157e-015 179.028 178.504 12.4582 179.624 -1.2702e-006 3.14078e-006 0.092774 -17.2807 68.6021 20.0075 8.13165 25.2351 -3.48275 -176.2 -0.811264 -0.27989 -1.07169e-005 -4.64205e-006 -1.12792 -1.19281 -14.0237 0.348403 -8.8353e-007 2.87672e-007 -0.357287 23.1234 72.8954 -24.7251 -8.12571 25.2332 3.48314 
49.51 96.1238 4.11603 -0.740944 -5.01249 0.680455 0.423092 -0.766978 0.042783 0.846842 2.47393 0.0385165 0.847347 4.11892 0.0243763 -0.742541 11.6512 -5.37753 1.78887 -0.498126 -5.42008 60.5304 -9.84 -6.13031 110.058 18.7363 15.9816 4.58455e-005 -3.90362e-006 -9.36195e-006 9.43209 2.55239 -0.871006 -5.84458e-006 -2.09091e-006 -3.00504 8.029 -4.95146 0.697678 -61.7095 -6.37744 4.09055 -109.37 19.7708 -5.58674 -7.15872e-007 -5.0229e-008 5.18533e-006 -9.78305 0.0817199 1.05526 7.22475e-006 6.31228e-007 3.04415 -8.029 -4.95145 -0.697678 174.01 3.20186 3.19887 180 7.0157e-015 179.028 178.504 12.4567 179.624 -1.2702e-006 3.14078e-006 0.0929945 -17.2734 68.5973 20.0034 8.13165 25.2351 -3.48275 -176.208 -0.803753 -0.279414 -1.07169e-005 -4.64205e-006 -1.12792 -1.1983 -14.0332 0.346927 -8.83531e-007 2.87672e-007 -0.357846 23.1382 72.8998 -24.7297 -8.12571 25.2332 3.48314 
